<?xml version="1.0" encoding="UTF-8" standalone="no"?>
<!-- Generator: Adobe Illustrator 15.0.0, SVG Export Plug-In . SVG Version: 6.00 Build 0)  -->

<svg
   xmlns:dc="http://purl.org/dc/elements/1.1/"
   xmlns:cc="http://creativecommons.org/ns#"
   xmlns:rdf="http://www.w3.org/1999/02/22-rdf-syntax-ns#"
   xmlns:svg="http://www.w3.org/2000/svg"
   xmlns="http://www.w3.org/2000/svg"
   xmlns:xlink="http://www.w3.org/1999/xlink"
   xmlns:sodipodi="http://sodipodi.sourceforge.net/DTD/sodipodi-0.dtd"
   xmlns:inkscape="http://www.inkscape.org/namespaces/inkscape"
   version="1.1"
   id="Calque_1"
   x="0px"
   y="0px"
   width="166px"
   height="90px"
   viewBox="0 0 166 90"
   enable-background="new 0 0 166 145.5"
   xml:space="preserve"
   inkscape:version="0.48.4 r9939"
   sodipodi:docname="logo-full.svg"><metadata
     id="metadata353"><rdf:RDF><cc:Work
         rdf:about=""><dc:format>image/svg+xml</dc:format><dc:type
           rdf:resource="http://purl.org/dc/dcmitype/StillImage" /><dc:title></dc:title></cc:Work></rdf:RDF></metadata><defs
     id="defs351" /><sodipodi:namedview
     pagecolor="#ffffff"
     bordercolor="#666666"
     borderopacity="1"
     objecttolerance="10"
     gridtolerance="10"
     guidetolerance="10"
     inkscape:pageopacity="0"
     inkscape:pageshadow="2"
     inkscape:window-width="1680"
     inkscape:window-height="993"
     id="namedview349"
     showgrid="false"
     inkscape:zoom="3.2439863"
     inkscape:cx="93.079461"
     inkscape:cy="77.846754"
     inkscape:window-x="0"
     inkscape:window-y="0"
     inkscape:window-maximized="1"
     inkscape:current-layer="Calque_1" /><g
     id="Calque_1_1_"
     display="none"><g
       id="LOGO"
       display="inline"><g
         id="g5"><g
           id="g7"><path
             fill="#65CA45"
             d="M47.467,5.419c0,0-12.806,0-19.484,0c-11.257,0-19.287,3.818-18.442,13.613      c1.512,17.513,32.906,12.862,38.181,35.003C51.586,34.531,32.906,32.77,23.891,25.84c-3.531-2.713-4.22-10.352,3.023-10.352      c2.516,0,15.218,0,15.218,0L47.467,5.419z"
             id="path9" /><path
             fill="#00486F"
             d="M2.914,19.068c0,19.33,15.346,23.363,24.466,28.768c3.827,2.271,4.215,10.353-3.033,10.353      c-2.512,0-21.237,0-21.237,0v29.627l10.573-4.547V68.259c3.439,0,7.029,0,9.6,0c11.262,0,18.442-3.784,18.442-13.617      C41.726,34.355,7.253,39.449,2.914,19.068z"
             id="path11" /></g><path
           fill="#696A6D"
           d="M80.213,16.137l-4.987-8.812c-0.804-1.395-1.247-2.067-2.539-2.067c-1.256,0-1.978,0.123-1.978,0.123     v13.887h2.361V8.269l5.531,9.734c0.63,1.076,1.128,1.38,2.224,1.38c1.073,0,1.749-0.082,1.749-0.082V5.374h-2.361V16.137z"
           id="path13" /><path
           fill="#696A6D"
           d="M95.143,16.542L90.717,5.446l-0.023-0.072h-2.471l4.924,12.457c0.483,1.204,1.045,1.694,2.014,1.674     c0.923-0.019,1.333-0.019,1.333-0.019l5.385-14.111H99.43L95.143,16.542z"
           id="path15" /><polygon
           fill="#696A6D"
           points="162.038,1.927 159.57,1.927 157.516,4.701 159.068,4.701    "
           id="polygon17" /><path
           fill="#696A6D"
           d="M66.005,14.479c0,1.863-1.032,2.884-2.964,2.884c-1.937,0-2.941-1.02-2.941-2.884V5.446h-2.33v9.235     c0,2.668,1.959,4.748,5.339,4.748c3.315,0,5.348-2.079,5.348-4.748V5.446h-2.452V14.479z"
           id="path19" /><rect
           x="84.881"
           y="5.482"
           fill="#696A6D"
           width="2.571"
           height="13.714"
           id="rect21" /><polygon
           fill="#696A6D"
           points="141.23,7.468 144.971,7.468 144.971,19.196 147.541,19.196 147.541,7.468 151.277,7.468      151.277,5.482 141.23,5.482    "
           id="polygon23" /><rect
           x="137.361"
           y="5.482"
           fill="#696A6D"
           width="2.57"
           height="13.714"
           id="rect25" /><path
           fill="#696A6D"
           d="M131.419,11.066c-1.394-0.654-2.599-1.222-2.599-2.146c0-0.865,0.492-1.339,1.384-1.339h4.741V5.414     h-4.494c-2.371,0-3.905,1.412-3.905,3.603c0,2.323,2.11,3.322,3.964,4.2c1.475,0.697,2.756,1.301,2.756,2.385     c0,0.777-0.242,1.495-1.996,1.495h-4.818v2.165h5.143c2.434,0,3.95-1.461,3.95-3.813     C135.543,13.008,133.255,11.933,131.419,11.066z"
           id="path27" /><path
           fill="#696A6D"
           d="M124.925,9.765c0-5.04-4.913-4.383-9.837-4.36h-0.955v13.81h2.297V7.498l0,0     c4.818-0.311,6.217,0.388,6.217,2.266c0,1.735-1.48,2.372-4.115,2.372h-0.447l-0.682,2.017l4.892,5.117h2.918l-5.006-5.207     C124.039,13.635,124.925,12.056,124.925,9.765z"
           id="path29" /><polygon
           fill="#696A6D"
           points="103.309,19.196 111.887,19.16 111.887,17.174 105.88,17.174 105.88,13.196 110.963,13.196      111.721,11.212 105.88,11.212 105.88,7.468 111.887,7.468 111.887,5.482 103.309,5.482    "
           id="polygon31" /><polygon
           fill="#696A6D"
           points="152.871,19.196 161.443,19.16 161.443,17.174 155.441,17.174 155.441,13.196 160.521,13.196      161.284,11.212 155.441,11.212 155.441,7.468 161.443,7.468 161.443,5.482 152.871,5.482    "
           id="polygon33" /><path
           fill="#696A6D"
           d="M128.665,35.867c0-10.065-9.824-8.756-19.651-8.705H107.1V54.74h4.59v-23.4l0,0     c9.623-0.621,12.418,0.774,12.418,4.527c0,3.464-2.955,4.737-8.211,4.737h-0.896l-1.364,4.029l9.772,10.22h5.832L119.24,44.448     C126.893,43.596,128.665,40.445,128.665,35.867z"
           id="path35" /><path
           fill="#696A6D"
           d="M65.799,44.633c10.258,0.839,13.591-3.865,13.591-8.766c0-10.065-9.824-8.756-19.652-8.705h-1.909V54.74     h4.59v-23.4l0,0c9.623-0.621,12.414,0.774,12.414,4.527c0,3.464-2.859,5.035-8.212,4.737h-0.89l-1.283,3.838L65.799,44.633z"
           id="path37" /><g
           id="g39"><path
             fill="#696A6D"
             d="M133.534,26.9h5.144v27.953h-5.144V26.9z"
             id="path41" /></g><path
           fill="#696A6D"
           d="M101.227,54.854h5.065L93.436,26.926h-5.522l-11.39,27.973l5.005-0.046l3.705-9.358h11.842     L101.227,54.854z M86.779,41.584l4.033-10.182l4.521,10.182H86.779z"
           id="path43" /><path
           fill="#696A6D"
           d="M154.201,54.739H143.91v-4.321h9.643c3.493,0,3.981-1.438,3.981-2.989c0-2.168-2.55-3.375-5.503-4.77     c-3.723-1.758-7.934-3.753-7.934-8.398c0-4.378,3.064-7.202,7.815-7.202h9.503v4.327h-10.002c-1.781,0-2.768,0.952-2.768,2.684     c0,1.843,2.412,2.977,5.197,4.291c3.672,1.724,8.243,3.879,8.243,8.761C162.087,51.821,159.064,54.739,154.201,54.739     L154.201,54.739z"
           id="path45" /><path
           fill="#696A6D"
           d="M68.306,88.466H58.012v-4.327h9.641c3.498,0,3.982-1.439,3.982-2.992c0-2.166-2.548-3.371-5.504-4.77     c-3.718-1.756-7.929-3.751-7.929-8.395c0-4.373,3.06-7.201,7.81-7.201h9.509v4.326h-10.01c-1.776,0-2.758,0.953-2.758,2.686     c0,1.847,2.412,2.978,5.193,4.287c3.672,1.732,8.244,3.889,8.244,8.764C76.189,85.545,73.17,88.466,68.306,88.466L68.306,88.466z     "
           id="path47" /><path
           fill="#696A6D"
           d="M100.732,60.77h-5.389v17.973c0,3.726-2.064,5.765-5.929,5.765c-3.862,0-5.886-2.038-5.886-5.765V60.77     h-4.654v18.363c0,5.342,3.914,9.502,10.682,9.502c6.627,0,10.688-4.16,10.688-9.502V64.948"
           id="path49" /><path
           fill="#696A6D"
           d="M100.643,87.516c0,0,1.039,0.779,5.791,0.758c9.892-0.045,14.121-5.834,14.121-14.017     c0-8.006-5.854-13.488-12.193-13.488H95.346l2.396,4.311h8.77c6.982,0,9.156,5.591,9.156,9.341c0,4.093-1.969,9.772-8.829,9.772     c-1.687,0-4.293-0.457-4.293-0.457L100.643,87.516z"
           id="path51" /></g></g><g
       id="REFERENCE"
       display="inline" /></g><g
     id="Calque_2"
     display="none"><g
       display="inline"
       id="g55"><path
         fill="#646469"
         d="M7.609,124.13c-1.235,0-2.304-0.45-3.122-1.269c-1.169-1.17-1.152-2.488-1.152-4.775    c0-2.288-0.017-3.607,1.152-4.775c0.818-0.817,1.887-1.269,3.122-1.269c2.187,0,3.823,1.286,4.241,3.656h-1.837    c-0.284-1.203-1.085-2.037-2.404-2.037c-0.701,0-1.336,0.267-1.753,0.718c-0.585,0.635-0.718,1.319-0.718,3.707    c0,2.389,0.133,3.072,0.718,3.707c0.417,0.451,1.052,0.718,1.753,0.718c1.319,0,2.137-0.835,2.421-2.036h1.82    C11.449,122.844,9.763,124.13,7.609,124.13z"
         id="path57" /><path
         fill="#646469"
         d="M19.215,123.128c-0.551,0.567-1.386,1.002-2.538,1.002c-1.152,0-1.97-0.435-2.521-1.002    c-0.801-0.834-1.002-1.903-1.002-3.339c0-1.419,0.2-2.488,1.002-3.322c0.551-0.568,1.369-1.002,2.521-1.002    c1.152,0,1.987,0.434,2.538,1.002c0.801,0.834,1.002,1.903,1.002,3.322C20.217,121.225,20.017,122.293,19.215,123.128z     M17.929,117.468c-0.317-0.317-0.751-0.483-1.252-0.483c-0.501,0-0.919,0.166-1.236,0.483c-0.518,0.517-0.584,1.403-0.584,2.321    s0.067,1.804,0.584,2.32c0.317,0.317,0.735,0.502,1.236,0.502c0.501,0,0.935-0.185,1.252-0.502    c0.518-0.517,0.585-1.402,0.585-2.32S18.447,117.984,17.929,117.468z"
         id="path59" /><path
         fill="#646469"
         d="M32.341,124.03v-5.159c0-1.319-0.751-1.887-1.703-1.887c-0.918,0-1.753,0.584-1.753,1.803v5.243h-1.703    v-5.159c0-1.319-0.751-1.887-1.703-1.887s-1.753,0.584-1.753,1.887v5.159h-1.703v-8.466h1.67v0.852    c0.568-0.618,1.403-0.951,2.254-0.951c1.052,0,1.87,0.417,2.404,1.235c0.684-0.835,1.536-1.235,2.655-1.235    c0.868,0,1.636,0.284,2.137,0.768c0.651,0.635,0.901,1.437,0.901,2.389v5.41L32.341,124.03L32.341,124.03z"
         id="path61" /><path
         fill="#646469"
         d="M42.144,123.379c-0.467,0.467-1.202,0.751-2.053,0.751c-0.902,0-1.603-0.233-2.221-0.968v4.291h-1.703    v-11.889h1.67v0.902c0.635-0.768,1.319-1.002,2.238-1.002c0.851,0,1.603,0.284,2.07,0.751c0.852,0.851,0.952,2.288,0.952,3.573    C43.096,121.074,42.996,122.527,42.144,123.379z M39.64,116.984c-1.536,0-1.77,1.302-1.77,2.805s0.234,2.822,1.77,2.822    c1.536,0,1.753-1.319,1.753-2.822S41.176,116.984,39.64,116.984z"
         id="path63" /><path
         fill="#646469"
         d="M49.56,117.551c-0.384-0.384-0.685-0.568-1.269-0.568c-0.918,0-1.687,0.734-1.687,1.904v5.143h-1.703    v-8.467h1.67v0.92c0.434-0.602,1.302-1.019,2.254-1.019c0.818,0,1.436,0.218,2.02,0.802L49.56,117.551z"
         id="path65" /><path
         fill="#646469"
         d="M52.984,120.29c0,1.452,0.768,2.371,2.154,2.371c0.951,0,1.452-0.269,2.054-0.868l1.085,1.018    c-0.868,0.869-1.687,1.319-3.172,1.319c-2.121,0-3.807-1.118-3.807-4.341c0-2.738,1.419-4.324,3.59-4.324    c2.271,0,3.59,1.669,3.59,4.074v0.751H52.984z M56.557,117.952c-0.267-0.634-0.868-1.069-1.67-1.069    c-0.801,0-1.419,0.434-1.686,1.069c-0.167,0.384-0.2,0.634-0.217,1.151h3.807C56.774,118.587,56.724,118.336,56.557,117.952z"
         id="path67" /><path
         fill="#646469"
         d="M65.391,124.03v-5.159c0-1.319-0.751-1.887-1.703-1.887s-1.753,0.584-1.753,1.887v5.159h-1.703v-8.466    h1.67v0.852c0.584-0.635,1.403-0.951,2.254-0.951c0.868,0,1.586,0.284,2.087,0.768c0.651,0.635,0.851,1.437,0.851,2.389v5.41    L65.391,124.03L65.391,124.03z"
         id="path69" /><path
         fill="#646469"
         d="M74.075,124.03v-0.902c-0.634,0.769-1.319,1.002-2.237,1.002c-0.851,0-1.603-0.284-2.07-0.751    c-0.851-0.852-0.951-2.305-0.951-3.59c0-1.286,0.1-2.723,0.951-3.573c0.468-0.467,1.202-0.751,2.054-0.751    c0.901,0,1.603,0.217,2.221,0.951v-4.273h1.703v11.888H74.075z M72.289,116.984c-1.536,0-1.77,1.302-1.77,2.805    s0.234,2.822,1.77,2.822s1.753-1.319,1.753-2.822S73.825,116.984,72.289,116.984z"
         id="path71" /><path
         fill="#646469"
         d="M82.609,117.551c-0.384-0.384-0.684-0.568-1.269-0.568c-0.919,0-1.687,0.734-1.687,1.904v5.143H77.95    v-8.467h1.67v0.92c0.434-0.602,1.302-1.019,2.254-1.019c0.818,0,1.436,0.218,2.021,0.802L82.609,117.551z"
         id="path73" /><path
         fill="#646469"
         d="M86.033,120.29c0,1.452,0.768,2.371,2.154,2.371c0.951,0,1.451-0.269,2.053-0.868l1.086,1.018    c-0.868,0.869-1.688,1.319-3.174,1.319c-2.119,0-3.807-1.118-3.807-4.341c0-2.738,1.42-4.324,3.59-4.324    c2.271,0,3.59,1.669,3.59,4.074v0.751H86.033z M89.607,117.952c-0.268-0.634-0.869-1.069-1.67-1.069    c-0.803,0-1.42,0.434-1.687,1.069c-0.167,0.384-0.2,0.634-0.217,1.151h3.807C89.824,118.587,89.773,118.336,89.607,117.952z"
         id="path75" /><path
         fill="#646469"
         d="M99.059,124.03c-1.619,0-2.32-1.085-2.32-2.339v-9.549h1.703v9.45c0,0.651,0.233,0.985,0.918,0.985h0.752    v1.453L99.059,124.03L99.059,124.03z"
         id="path77" /><path
         fill="#646469"
         d="M102.732,120.29c0,1.452,0.769,2.371,2.154,2.371c0.951,0,1.452-0.269,2.055-0.868l1.084,1.018    c-0.867,0.869-1.687,1.319-3.172,1.319c-2.121,0-3.808-1.118-3.808-4.341c0-2.738,1.419-4.324,3.591-4.324    c2.271,0,3.59,1.669,3.59,4.074v0.751H102.732z M106.307,117.952c-0.268-0.634-0.867-1.069-1.67-1.069    c-0.802,0-1.419,0.434-1.686,1.069c-0.167,0.384-0.202,0.634-0.217,1.151h3.806C106.521,118.587,106.473,118.336,106.307,117.952z    "
         id="path79" /><path
         fill="#646469"
         d="M123.807,124.03v-5.159c0-1.319-0.752-1.887-1.703-1.887c-0.918,0-1.754,0.584-1.754,1.803v5.243h-1.703    v-5.159c0-1.319-0.752-1.887-1.703-1.887s-1.754,0.584-1.754,1.887v5.159h-1.703v-8.466h1.671v0.852    c0.567-0.618,1.401-0.951,2.254-0.951c1.052,0,1.87,0.417,2.403,1.235c0.686-0.835,1.537-1.235,2.656-1.235    c0.867,0,1.635,0.284,2.137,0.768c0.65,0.635,0.902,1.437,0.902,2.389v5.41L123.807,124.03L123.807,124.03z"
         id="path81" /><path
         fill="#646469"
         d="M133.292,123.128c-0.551,0.567-1.385,1.002-2.537,1.002c-1.151,0-1.97-0.435-2.522-1.002    c-0.799-0.834-1.002-1.903-1.002-3.339c0-1.419,0.203-2.488,1.002-3.322c0.553-0.568,1.369-1.002,2.522-1.002    c1.152,0,1.987,0.434,2.537,1.002c0.802,0.834,1.002,1.903,1.002,3.322C134.294,121.225,134.094,122.293,133.292,123.128z     M132.007,117.468c-0.315-0.317-0.751-0.483-1.252-0.483s-0.918,0.166-1.235,0.483c-0.518,0.517-0.586,1.403-0.586,2.321    s0.068,1.804,0.586,2.32c0.317,0.317,0.734,0.502,1.235,0.502s0.935-0.185,1.252-0.502c0.519-0.517,0.585-1.402,0.585-2.32    C132.591,118.871,132.525,117.984,132.007,117.468z"
         id="path83" /><path
         fill="#646469"
         d="M141.259,124.03v-5.159c0-1.319-0.752-1.887-1.702-1.887c-0.953,0-1.754,0.584-1.754,1.887v5.159H136.1    v-8.466h1.67v0.852c0.584-0.635,1.401-0.951,2.254-0.951c0.867,0,1.586,0.284,2.086,0.768c0.652,0.635,0.852,1.437,0.852,2.389    v5.41L141.259,124.03L141.259,124.03z"
         id="path85" /><path
         fill="#646469"
         d="M149.943,124.03v-0.902c-0.635,0.769-1.318,1.002-2.238,1.002c-0.852,0-1.602-0.284-2.068-0.751    c-0.854-0.852-0.953-2.305-0.953-3.59c0-1.286,0.1-2.723,0.953-3.573c0.467-0.467,1.201-0.751,2.053-0.751    c0.9,0,1.602,0.217,2.221,0.951v-4.273h1.703v11.888H149.943z M148.156,116.984c-1.535,0-1.77,1.302-1.77,2.805    s0.233,2.822,1.77,2.822c1.537,0,1.754-1.319,1.754-2.822S149.693,116.984,148.156,116.984z"
         id="path87" /><path
         fill="#646469"
         d="M155.07,120.29c0,1.452,0.768,2.371,2.154,2.371c0.951,0,1.453-0.269,2.053-0.868l1.086,1.018    c-0.868,0.869-1.686,1.319-3.174,1.319c-2.119,0-3.806-1.118-3.806-4.341c0-2.738,1.419-4.324,3.589-4.324    c2.272,0,3.59,1.669,3.59,4.074v0.751H155.07z M158.645,117.952c-0.268-0.634-0.869-1.069-1.67-1.069s-1.42,0.434-1.687,1.069    c-0.167,0.384-0.2,0.634-0.218,1.151h3.808C158.861,118.587,158.811,118.336,158.645,117.952z"
         id="path89" /><path
         fill="#646469"
         d="M162.436,126.434v-3.873h1.469v2.554L162.436,126.434z"
         id="path91" /><path
         fill="#646469"
         d="M7.442,142.294c-1.904,0-3.774-1.169-3.774-4.341s1.87-4.324,3.774-4.324c1.169,0,1.987,0.334,2.788,1.186    l-1.169,1.135c-0.534-0.585-0.952-0.801-1.62-0.801c-0.651,0-1.202,0.268-1.569,0.75c-0.368,0.468-0.501,1.069-0.501,2.054    c0,0.985,0.133,1.603,0.501,2.071c0.367,0.483,0.918,0.75,1.569,0.75c0.668,0,1.085-0.217,1.62-0.801l1.169,1.118    C9.429,141.943,8.611,142.294,7.442,142.294z"
         id="path93" /><path
         fill="#646469"
         d="M18.731,141.292c-0.551,0.567-1.386,1.002-2.538,1.002c-1.152,0-1.97-0.435-2.521-1.002    c-0.801-0.834-1.002-1.903-1.002-3.339c0-1.419,0.2-2.488,1.002-3.322c0.551-0.568,1.369-1.002,2.521-1.002    c1.152,0,1.987,0.434,2.538,1.002c0.801,0.834,1.002,1.903,1.002,3.322C19.732,139.389,19.532,140.458,18.731,141.292z     M17.445,135.632c-0.317-0.317-0.751-0.483-1.252-0.483s-0.919,0.166-1.236,0.483c-0.518,0.517-0.584,1.403-0.584,2.321    s0.067,1.804,0.584,2.32c0.317,0.317,0.735,0.502,1.236,0.502s0.935-0.185,1.252-0.502c0.518-0.517,0.585-1.402,0.585-2.32    S17.962,136.15,17.445,135.632z"
         id="path95" /><path
         fill="#646469"
         d="M28.066,142.193v-5.158c0-1.319-0.751-1.887-1.703-1.887c-0.952,0-1.753,0.584-1.753,1.887v5.158h-1.703    v-8.465h1.67v0.852c0.585-0.635,1.403-0.951,2.254-0.951c0.868,0,1.586,0.284,2.087,0.768c0.651,0.635,0.851,1.437,0.851,2.389    v5.41h-1.703V142.193z"
         id="path97" /><path
         fill="#646469"
         d="M35.999,142.294c-1.386,0-2.554-0.233-3.556-1.219l1.119-1.118c0.685,0.701,1.603,0.885,2.438,0.885    c1.035,0,1.853-0.367,1.853-1.169c0-0.567-0.317-0.935-1.135-1.002l-1.352-0.116c-1.586-0.134-2.504-0.852-2.504-2.338    c0-1.652,1.419-2.588,3.189-2.588c1.269,0,2.354,0.268,3.139,0.951l-1.069,1.085c-0.534-0.451-1.286-0.617-2.087-0.617    c-1.018,0-1.536,0.451-1.536,1.085c0,0.501,0.267,0.885,1.169,0.969l1.336,0.116c1.586,0.134,2.521,0.886,2.521,2.388    C39.522,141.376,38.019,142.294,35.999,142.294z"
         id="path99" /><path
         fill="#646469"
         d="M44.984,142.193c-1.586,0-2.321-1.135-2.321-2.354v-4.658h-0.969v-1.303h0.969v-2.57h1.703v2.57h1.636    v1.303h-1.636v4.575c0,0.617,0.301,0.985,0.935,0.985h0.701v1.453h-1.018V142.193z"
         id="path101" /><path
         fill="#646469"
         d="M53.701,135.716c-0.384-0.384-0.684-0.567-1.269-0.567c-0.919,0-1.687,0.733-1.687,1.903v5.142h-1.703    v-8.465h1.67v0.918c0.434-0.601,1.302-1.018,2.254-1.018c0.818,0,1.436,0.217,2.02,0.801L53.701,135.716z"
         id="path103" /><path
         fill="#646469"
         d="M62.351,142.193v-0.851c-0.584,0.634-1.402,0.952-2.254,0.952c-0.869,0-1.586-0.284-2.087-0.768    c-0.651-0.635-0.851-1.437-0.851-2.389v-5.41h1.703v5.16c0,1.319,0.751,1.887,1.703,1.887s1.753-0.584,1.753-1.887v-5.16h1.703    v8.467h-1.67V142.193z"
         id="path105" /><path
         fill="#646469"
         d="M67.546,132.061v-1.805h1.803v1.805H67.546z M67.596,142.193v-8.465h1.703v8.465H67.596z"
         id="path107" /><path
         fill="#646469"
         d="M77.532,135.716c-0.384-0.384-0.684-0.567-1.269-0.567c-0.919,0-1.687,0.733-1.687,1.903v5.142h-1.703    v-8.465h1.67v0.918c0.434-0.601,1.302-1.018,2.254-1.018c0.818,0,1.436,0.217,2.02,0.801L77.532,135.716z"
         id="path109" /><path
         fill="#646469"
         d="M82.325,138.454c0,1.452,0.768,2.371,2.153,2.371c0.953,0,1.453-0.269,2.055-0.868l1.085,1.018    c-0.868,0.868-1.687,1.319-3.173,1.319c-2.12,0-3.806-1.118-3.806-4.341c0-2.738,1.42-4.324,3.589-4.324    c2.271,0,3.59,1.669,3.59,4.074v0.751H82.325z M85.898,136.117c-0.268-0.635-0.869-1.069-1.67-1.069    c-0.801,0-1.419,0.435-1.687,1.069c-0.167,0.384-0.2,0.634-0.217,1.152h3.807C86.116,136.751,86.066,136.501,85.898,136.117z"
         id="path111" /><path
         fill="#646469"
         d="M98.09,142.193c-1.619,0-2.322-1.084-2.322-2.338v-9.549h1.705v9.45c0,0.651,0.232,0.985,0.918,0.985h0.75    v1.453H98.09V142.193z"
         id="path113" /><path
         fill="#646469"
         d="M101.831,133.579v-3.272h1.87v1.754L101.831,133.579z"
         id="path115" /><path
         fill="#646469"
         d="M111.783,142.193v-0.769c-0.617,0.618-1.202,0.869-2.254,0.869c-1.053,0-1.754-0.251-2.271-0.769    c-0.434-0.45-0.668-1.103-0.668-1.819c0-1.42,0.985-2.437,2.922-2.437h2.238v-0.603c0-1.069-0.535-1.587-1.854-1.587    c-0.935,0-1.385,0.217-1.853,0.818l-1.12-1.051c0.803-0.935,1.639-1.219,3.04-1.219c2.32,0,3.49,0.985,3.49,2.905v5.659H111.783z     M111.75,138.454h-1.986c-1.002,0-1.521,0.451-1.521,1.219c0,0.769,0.483,1.202,1.552,1.202c0.65,0,1.135-0.05,1.587-0.484    c0.25-0.25,0.368-0.65,0.368-1.252V138.454z"
         id="path117" /><path
         fill="#646469"
         d="M120.217,142.193h-1.385l-3.105-8.465h1.803l2.005,5.961l1.987-5.961h1.804L120.217,142.193z"
         id="path119" /><path
         fill="#646469"
         d="M126.932,138.454c0,1.452,0.768,2.371,2.153,2.371c0.952,0,1.453-0.269,2.054-0.868l1.086,1.018    c-0.869,0.868-1.687,1.319-3.174,1.319c-2.119,0-3.806-1.118-3.806-4.341c0-2.738,1.419-4.324,3.589-4.324    c2.271,0,3.59,1.669,3.59,4.074v0.751H126.932z M130.504,136.117c-0.268-0.635-0.867-1.069-1.67-1.069    c-0.8,0-1.419,0.435-1.686,1.069c-0.168,0.384-0.2,0.634-0.217,1.152h3.807C130.721,136.751,130.671,136.501,130.504,136.117z"
         id="path121" /><path
         fill="#646469"
         d="M140.707,142.193v-5.158c0-1.319-0.751-1.887-1.703-1.887c-0.951,0-1.753,0.584-1.753,1.887v5.158h-1.703    v-8.465h1.669v0.852c0.586-0.635,1.403-0.951,2.256-0.951c0.867,0,1.584,0.284,2.086,0.768c0.65,0.635,0.851,1.437,0.851,2.389    v5.41h-1.702V142.193z"
         id="path123" /><path
         fill="#646469"
         d="M145.852,132.061v-1.805h1.805v1.805H145.852z M145.902,142.193v-8.465h1.703v8.465H145.902z"
         id="path125" /><path
         fill="#646469"
         d="M155.838,135.716c-0.385-0.384-0.686-0.567-1.27-0.567c-0.918,0-1.687,0.733-1.687,1.903v5.142h-1.702    v-8.465h1.67v0.918c0.434-0.601,1.303-1.018,2.254-1.018c0.818,0,1.436,0.217,2.021,0.801L155.838,135.716z"
         id="path127" /><path
         fill="#646469"
         d="M162.18,137.756c-1.927,0-3.488-1.561-3.488-3.488c0-1.926,1.562-3.486,3.488-3.486    c1.928,0,3.487,1.56,3.487,3.486C165.667,136.195,164.107,137.756,162.18,137.756z M162.18,131.426    c-1.561,0-2.793,1.252-2.793,2.842s1.232,2.842,2.793,2.842c1.562,0,2.784-1.252,2.784-2.842    C164.964,132.68,163.741,131.426,162.18,131.426z M162.912,136.146l-0.771-1.492h-0.482v1.492h-0.694v-3.766h1.416    c0.714,0,1.216,0.529,1.216,1.156c0,0.529-0.328,0.876-0.742,1.021l0.838,1.588H162.912z M162.295,132.968h-0.636v1.138h0.636    c0.366,0,0.617-0.252,0.617-0.568C162.912,133.218,162.661,132.968,162.295,132.968z"
         id="path129" /></g><g
       display="inline"
       id="g131"><g
         id="g133"><path
           fill="#62C624"
           d="M47.936,5.404c0,0-12.749,0-19.397,0c-11.21,0-19.203,3.801-18.361,13.554     c1.504,17.437,32.765,12.807,38.014,34.853c3.849-19.42-14.751-21.173-23.729-28.074c-3.513-2.701-4.2-10.308,3.014-10.308     c2.504,0,15.152,0,15.152,0L47.936,5.404z"
           id="path135" /><path
           fill="#004D73"
           d="M3.579,18.994c0,19.247,15.279,23.262,24.359,28.644c3.812,2.261,4.198,10.308-3.017,10.308     c-2.505,0-21.148,0-21.148,0v29.5l10.526-4.527V67.972c3.425,0,6.999,0,9.563,0c11.212,0,18.36-3.767,18.36-13.558     C42.222,34.215,7.897,39.286,3.579,18.994z"
           id="path137" /></g><path
         fill="#646469"
         d="M80.542,16.075l-4.965-8.774c-0.799-1.389-1.244-2.057-2.527-2.057c-1.252,0-1.973,0.122-1.973,0.122    v13.827h2.351V8.241l5.511,9.692c0.626,1.07,1.12,1.374,2.21,1.374c1.073,0,1.744-0.082,1.744-0.082V5.358h-2.352L80.542,16.075    L80.542,16.075z"
         id="path139" /><path
         fill="#646469"
         d="M95.408,16.479L91.004,5.43l-0.025-0.072h-2.461l4.902,12.403c0.484,1.2,1.044,1.688,2.01,1.667    c0.916-0.02,1.324-0.02,1.324-0.02l5.361-14.05H99.68L95.408,16.479z"
         id="path141" /><polygon
         fill="#646469"
         points="162.014,1.927 159.557,1.927 157.51,4.689 159.057,4.689   "
         id="polygon143" /><path
         fill="#646469"
         d="M66.394,14.425c0,1.855-1.025,2.872-2.949,2.872c-1.93,0-2.931-1.016-2.931-2.872V5.43h-2.319v9.194    c0,2.657,1.951,4.727,5.319,4.727c3.301,0,5.323-2.07,5.323-4.727V5.43h-2.443V14.425z"
         id="path145" /><rect
         x="85.188"
         y="5.467"
         fill="#646469"
         width="2.561"
         height="13.655"
         id="rect147" /><polygon
         fill="#646469"
         points="141.296,7.444 145.021,7.444 145.021,19.121 147.581,19.121 147.581,7.444 151.301,7.444     151.301,5.467 141.296,5.467   "
         id="polygon149" /><rect
         x="137.445"
         y="5.467"
         fill="#646469"
         width="2.56"
         height="13.655"
         id="rect151" /><path
         fill="#646469"
         d="M131.527,11.026c-1.389-0.651-2.586-1.216-2.586-2.136c0-0.862,0.49-1.334,1.375-1.334h4.725V5.399h-4.479    c-2.36,0-3.888,1.406-3.888,3.588c0,2.312,2.101,3.307,3.951,4.181c1.466,0.694,2.74,1.295,2.74,2.376    c0,0.773-0.241,1.487-1.985,1.487h-4.8v2.156h5.123c2.422,0,3.93-1.456,3.93-3.796C135.633,12.96,133.355,11.89,131.527,11.026z"
         id="path153" /><path
         fill="#646469"
         d="M125.064,9.731c0-5.019-4.897-4.365-9.795-4.341h-0.953v13.749h2.285V7.474l0,0    c4.799-0.309,6.189,0.387,6.189,2.257c0,1.727-1.473,2.361-4.094,2.361h-0.445l-0.679,2.008l4.87,5.096h2.908l-4.985-5.185    C124.18,13.584,125.064,12.012,125.064,9.731z"
         id="path155" /><polygon
         fill="#646469"
         points="103.539,19.121 112.08,19.085 112.08,17.108 106.1,17.108 106.1,13.147 111.159,13.147     111.916,11.172 106.1,11.172 106.1,7.444 112.08,7.444 112.08,5.467 103.539,5.467   "
         id="polygon157" /><polygon
         fill="#646469"
         points="152.885,19.121 161.425,19.085 161.425,17.108 155.445,17.108 155.445,13.147 160.505,13.147     161.262,11.172 155.445,11.172 155.445,7.444 161.425,7.444 161.425,5.467 152.885,5.467   "
         id="polygon159" /><path
         fill="#646469"
         d="M128.785,35.72c0-10.021-9.781-8.718-19.568-8.667h-1.902v27.458h4.569V31.212l0,0    c9.582-0.618,12.363,0.771,12.363,4.507c0,3.45-2.942,4.717-8.177,4.717h-0.889l-1.361,4.012l9.732,10.176h5.805L119.4,44.265    C127.021,43.416,128.785,40.279,128.785,35.72z"
         id="path161" /><path
         fill="#646469"
         d="M66.193,44.449c10.211,0.835,13.532-3.848,13.532-8.729c0-10.021-9.781-8.718-19.568-8.667h-1.902v27.458    h4.571V31.212l0,0c9.581-0.618,12.361,0.771,12.361,4.507c0,3.45-2.846,5.014-8.177,4.717h-0.889l-1.276,3.822L66.193,44.449z"
         id="path163" /><g
         id="g165"><path
           fill="#646469"
           d="M133.635,26.793h5.12v27.832h-5.12V26.793z"
           id="path167" /></g><path
         fill="#646469"
         d="M101.465,54.625h5.044L93.706,26.818h-5.498L76.868,54.67l4.986-0.045l3.687-9.317h11.79L101.465,54.625z     M87.083,41.413l4.013-10.139l4.502,10.139H87.083z"
         id="path169" /><path
         fill="#646469"
         d="M154.209,54.511h-10.246v-4.302h9.602c3.48,0,3.963-1.432,3.963-2.977c0-2.159-2.537-3.36-5.475-4.749    c-3.707-1.751-7.9-3.737-7.9-8.361c0-4.359,3.051-7.17,7.779-7.17h9.463v4.308h-9.959c-1.772,0-2.754,0.948-2.754,2.673    c0,1.835,2.4,2.964,5.172,4.273c3.655,1.717,8.209,3.862,8.209,8.723C162.064,51.606,159.055,54.511,154.209,54.511    L154.209,54.511z"
         id="path171" /><path
         fill="#646469"
         d="M68.687,88.092h-10.25v-4.308h9.6c3.486,0,3.966-1.435,3.966-2.979c0-2.158-2.54-3.355-5.478-4.748    c-3.703-1.75-7.898-3.736-7.898-8.361c0-4.354,3.051-7.17,7.778-7.17h9.467v4.308h-9.964c-1.771,0-2.75,0.949-2.75,2.673    c0,1.839,2.4,2.966,5.172,4.269c3.655,1.724,8.207,3.871,8.207,8.726C76.537,85.184,73.531,88.092,68.687,88.092L68.687,88.092z"
         id="path173" /><path
         fill="#646469"
         d="M100.977,60.516h-5.369v17.895c0,3.711-2.053,5.739-5.902,5.739c-3.848,0-5.859-2.028-5.859-5.739V60.516    h-4.635V78.8c0,5.317,3.897,9.46,10.637,9.46c6.594,0,10.639-4.142,10.639-9.46V64.675"
         id="path175" /><path
         fill="#646469"
         d="M100.882,87.146c0,0,1.037,0.776,5.765,0.756c9.853-0.045,14.063-5.811,14.063-13.957    c0-7.971-5.831-13.428-12.144-13.428H95.607l2.387,4.292h8.734c6.949,0,9.117,5.567,9.117,9.3c0,4.074-1.964,9.729-8.791,9.729    c-1.68,0-4.277-0.455-4.277-0.455L100.882,87.146z"
         id="path177" /></g><line
       display="inline"
       fill="none"
       stroke="#62C624"
       stroke-width="1.5912"
       x1="3.293"
       y1="101.875"
       x2="161.468"
       y2="101.875"
       id="line179" /></g><g
     id="g181"><defs
       id="defs183"><rect
         id="SVGID_1_"
         x="1.063"
         y="1.927"
         width="162.937"
         height="144.529" /></defs><clipPath
       id="SVGID_2_"><use
         xlink:href="#SVGID_1_"
         overflow="visible"
         id="use187" /></clipPath><path
       clip-path="url(#SVGID_2_)"
       fill="#7DC049"
       d="M48.002,5.412H28.557C17.319,5.412,9.307,9.223,10.15,19   c1.508,17.479,32.846,12.838,38.109,34.939C52.117,34.471,33.47,32.713,24.47,25.795c-3.521-2.708-4.21-10.333,3.021-10.333h15.19   L48.002,5.412z"
       id="path263" /><path
       clip-path="url(#SVGID_2_)"
       fill="#00567F"
       d="M3.536,19.036c0,19.294,15.316,23.32,24.419,28.714   c3.821,2.268,4.209,10.333-3.024,10.333H3.73v29.573l10.552-4.539V68.136h9.587c11.239,0,18.405-3.777,18.405-13.592   C42.274,34.294,7.864,39.379,3.536,19.036"
       id="path265" /><path
       clip-path="url(#SVGID_2_)"
       fill="#807F83"
       d="M80.689,16.109l-4.978-8.796c-0.801-1.392-1.246-2.063-2.533-2.063   c-1.254,0-1.977,0.124-1.977,0.124v13.861h2.356V8.255l5.525,9.717c0.626,1.073,1.122,1.377,2.214,1.377   c1.075,0,1.749-0.082,1.749-0.082V5.366h-2.357V16.109z"
       id="path267" /><path
       clip-path="url(#SVGID_2_)"
       fill="#807F83"
       d="M95.592,16.514L91.176,5.438L91.15,5.366h-2.466L93.6,17.799   c0.484,1.203,1.045,1.691,2.013,1.671c0.919-0.02,1.328-0.02,1.328-0.02l5.374-14.085h-2.441L95.592,16.514z"
       id="path269" /><polygon
       clip-path="url(#SVGID_2_)"
       fill="#807F83"
       points="162.361,1.927 159.9,1.927 157.849,4.695 159.397,4.695  "
       id="polygon271" /><path
       clip-path="url(#SVGID_2_)"
       fill="#807F83"
       d="M66.507,14.456c0,1.86-1.029,2.878-2.956,2.878   c-1.936,0-2.939-1.019-2.939-2.878V5.438h-2.325v9.217c0,2.663,1.955,4.739,5.332,4.739c3.31,0,5.336-2.076,5.336-4.739V5.438   h-2.448V14.456z"
       id="path273" /><rect
       x="85.348"
       y="5.474"
       clip-path="url(#SVGID_2_)"
       fill="#807F83"
       width="2.565"
       height="13.689"
       id="rect275" /><polygon
       clip-path="url(#SVGID_2_)"
       fill="#807F83"
       points="141.594,7.457 145.328,7.457 145.328,19.163 147.894,19.163    147.894,7.457 151.624,7.457 151.624,5.475 141.594,5.475  "
       id="polygon277" /><rect
       x="137.732"
       y="5.474"
       clip-path="url(#SVGID_2_)"
       fill="#807F83"
       width="2.566"
       height="13.689"
       id="rect279" /><path
       clip-path="url(#SVGID_2_)"
       fill="#807F83"
       d="M131.802,11.048c-1.393-0.652-2.595-1.219-2.595-2.141   c0-0.864,0.492-1.337,1.38-1.337h4.735V5.407h-4.487c-2.367,0-3.9,1.41-3.9,3.597c0,2.318,2.107,3.315,3.963,4.191   c1.469,0.695,2.745,1.297,2.745,2.381c0,0.774-0.242,1.49-1.988,1.49h-4.813v2.163h5.136c2.427,0,3.939-1.46,3.939-3.806   C135.916,12.987,133.634,11.913,131.802,11.048"
       id="path281" /><path
       clip-path="url(#SVGID_2_)"
       fill="#807F83"
       d="M125.321,9.75c0-5.032-4.91-4.375-9.819-4.352h-0.954V19.18h2.291V7.487   c4.811-0.31,6.204,0.388,6.204,2.263c0,1.731-1.477,2.367-4.104,2.367h-0.445l-0.682,2.013l4.883,5.109h2.915l-4.997-5.198   C124.436,13.612,125.321,12.036,125.321,9.75"
       id="path283" /><polygon
       clip-path="url(#SVGID_2_)"
       fill="#807F83"
       points="103.742,19.163 112.305,19.126 112.305,17.145 106.31,17.145    106.31,13.175 111.382,13.175 112.14,11.194 106.31,11.194 106.31,7.457 112.305,7.457 112.305,5.474 103.742,5.474  "
       id="polygon285" /><polygon
       clip-path="url(#SVGID_2_)"
       fill="#807F83"
       points="153.211,19.163 161.771,19.126 161.771,17.145 155.778,17.145    155.778,13.175 160.851,13.175 161.609,11.194 155.778,11.194 155.778,7.457 161.771,7.457 161.771,5.474 153.211,5.474  "
       id="polygon287" /><path
       clip-path="url(#SVGID_2_)"
       fill="#807F83"
       d="M129.052,35.802c0-10.045-9.806-8.739-19.616-8.687h-1.907v27.525h4.581V31.285   c9.605-0.62,12.394,0.773,12.394,4.518c0,3.459-2.951,4.729-8.197,4.729h-0.893l-1.361,4.021l9.754,10.201h5.82l-9.981-10.384   C127.283,43.518,129.052,40.373,129.052,35.802"
       id="path289" /><path
       clip-path="url(#SVGID_2_)"
       fill="#807F83"
       d="M66.304,44.553c10.236,0.837,13.566-3.857,13.566-8.751   c0-10.046-9.805-8.739-19.617-8.688h-1.906v27.526h4.582V31.285c9.604-0.619,12.392,0.773,12.392,4.518   c0,3.459-2.852,5.027-8.196,4.73h-0.891l-1.279,3.832L66.304,44.553z"
       id="path291" /><rect
       x="133.914"
       y="26.853"
       clip-path="url(#SVGID_2_)"
       fill="#807F83"
       width="5.133"
       height="27.901"
       id="rect293" /><path
       clip-path="url(#SVGID_2_)"
       fill="#807F83"
       d="M101.664,54.754h5.055L93.886,26.879h-5.511L77.006,54.8l4.999-0.045   l3.695-9.34H97.52L101.664,54.754z M87.247,41.51l4.021-10.164l4.513,10.164H87.247z"
       id="path295" /><path
       clip-path="url(#SVGID_2_)"
       fill="#807F83"
       d="M154.539,54.641h-10.271v-4.313h9.626c3.489,0,3.974-1.436,3.974-2.984   c0-2.165-2.545-3.369-5.491-4.762c-3.715-1.754-7.919-3.746-7.919-8.381c0-4.37,3.059-7.188,7.797-7.188h9.488v4.318h-9.982   c-1.777,0-2.761,0.951-2.761,2.68c0,1.84,2.404,2.971,5.185,4.283c3.665,1.721,8.23,3.872,8.23,8.745   C162.414,51.728,159.396,54.641,154.539,54.641"
       id="path297" /><path
       clip-path="url(#SVGID_2_)"
       fill="#807F83"
       d="M68.805,88.306H58.53v-4.318h9.623c3.495,0,3.976-1.438,3.976-2.988   c0-2.162-2.545-3.363-5.491-4.76c-3.711-1.754-7.918-3.744-7.918-8.38c0-4.365,3.059-7.189,7.796-7.189h9.491v4.319h-9.989   c-1.776,0-2.758,0.95-2.758,2.679c0,1.845,2.406,2.973,5.186,4.28c3.664,1.729,8.227,3.88,8.227,8.748   C76.673,85.39,73.66,88.306,68.805,88.306"
       id="path299" /><path
       clip-path="url(#SVGID_2_)"
       fill="#807F83"
       d="M101.174,60.661h-5.383V78.6c0,3.722-2.058,5.754-5.916,5.754   c-3.856,0-5.873-2.032-5.873-5.754V60.661h-4.646v18.33c0,5.33,3.906,9.483,10.663,9.483c6.611,0,10.666-4.153,10.666-9.483V64.83"
       id="path301" /><path
       clip-path="url(#SVGID_2_)"
       fill="#807F83"
       d="M101.079,87.356c0,0,1.04,0.778,5.78,0.758   c9.876-0.044,14.098-5.823,14.098-13.991c0-7.991-5.846-13.462-12.174-13.462H95.792l2.393,4.303h8.757   c6.967,0,9.139,5.581,9.139,9.323c0,4.083-1.968,9.755-8.812,9.755c-1.684,0-4.288-0.457-4.288-0.457L101.079,87.356z"
       id="path303" /><path
       clip-path="url(#SVGID_2_)"
       fill="#7DC049"
       d="M48.002,249.421H28.557c-11.238,0-19.25,3.809-18.407,13.588   c1.508,17.479,32.846,12.838,38.109,34.938c3.858-19.468-14.789-21.226-23.789-28.143c-3.521-2.709-4.21-10.335,3.021-10.335h15.19   L48.002,249.421z"
       id="path307" /><path
       clip-path="url(#SVGID_2_)"
       fill="#00567F"
       d="M3.536,263.044c0,19.296,15.316,23.32,24.419,28.715   c3.821,2.267,4.209,10.333-3.024,10.333H3.73v29.574l10.552-4.541v-14.979h9.587c11.239,0,18.405-3.778,18.405-13.593   C42.274,278.303,7.864,283.388,3.536,263.044"
       id="path309" /><path
       clip-path="url(#SVGID_2_)"
       fill="#807F83"
       d="M80.689,260.119l-4.978-8.796c-0.801-1.394-1.246-2.063-2.533-2.063   c-1.254,0-1.977,0.122-1.977,0.122v13.862h2.356v-10.979l5.525,9.717c0.626,1.072,1.122,1.377,2.214,1.377   c1.075,0,1.749-0.084,1.749-0.084v-13.9h-2.357V260.119z"
       id="path311" /><path
       clip-path="url(#SVGID_2_)"
       fill="#807F83"
       d="M95.592,260.523l-4.416-11.076l-0.025-0.071h-2.466L93.6,261.81   c0.484,1.201,1.045,1.689,2.013,1.67c0.919-0.021,1.328-0.021,1.328-0.021l5.374-14.083h-2.441L95.592,260.523z"
       id="path313" /><polygon
       clip-path="url(#SVGID_2_)"
       fill="#807F83"
       points="162.361,245.935 159.9,245.935 157.849,248.703 159.397,248.703  "
       id="polygon315" /><path
       clip-path="url(#SVGID_2_)"
       fill="#807F83"
       d="M66.507,258.465c0,1.858-1.029,2.877-2.956,2.877   c-1.936,0-2.939-1.019-2.939-2.877v-9.018h-2.325v9.215c0,2.665,1.955,4.74,5.332,4.74c3.31,0,5.336-2.075,5.336-4.74v-9.215   h-2.448V258.465z"
       id="path317" /><rect
       x="85.348"
       y="249.482"
       clip-path="url(#SVGID_2_)"
       fill="#807F83"
       width="2.565"
       height="13.689"
       id="rect319" /><polygon
       clip-path="url(#SVGID_2_)"
       fill="#807F83"
       points="141.594,251.465 145.328,251.465 145.328,263.173 147.894,263.173    147.894,251.465 151.624,251.465 151.624,249.482 141.594,249.482  "
       id="polygon321" /><rect
       x="137.732"
       y="249.482"
       clip-path="url(#SVGID_2_)"
       fill="#807F83"
       width="2.566"
       height="13.689"
       id="rect323" /><path
       clip-path="url(#SVGID_2_)"
       fill="#807F83"
       d="M131.802,255.058c-1.393-0.653-2.595-1.22-2.595-2.143   c0-0.864,0.492-1.337,1.38-1.337h4.735v-2.162h-4.487c-2.367,0-3.9,1.409-3.9,3.597c0,2.316,2.107,3.314,3.963,4.192   c1.469,0.694,2.745,1.296,2.745,2.381c0,0.774-0.242,1.491-1.988,1.491h-4.813v2.161h5.136c2.427,0,3.939-1.459,3.939-3.806   C135.916,256.995,133.634,255.922,131.802,255.058"
       id="path325" /><path
       clip-path="url(#SVGID_2_)"
       fill="#807F83"
       d="M125.321,253.758c0-5.031-4.91-4.376-9.819-4.352h-0.954v13.783h2.291v-11.693   c4.811-0.31,6.204,0.388,6.204,2.262c0,1.732-1.477,2.368-4.104,2.368h-0.445l-0.682,2.013l4.883,5.107h2.915l-4.997-5.196   C124.436,257.621,125.321,256.046,125.321,253.758"
       id="path327" /><polygon
       clip-path="url(#SVGID_2_)"
       fill="#807F83"
       points="103.742,263.173 112.305,263.136 112.305,261.152 106.31,261.152    106.31,257.184 111.382,257.184 112.14,255.203 106.31,255.203 106.31,251.465 112.305,251.465 112.305,249.482 103.742,249.482     "
       id="polygon329" /><polygon
       clip-path="url(#SVGID_2_)"
       fill="#807F83"
       points="153.211,263.173 161.771,263.136 161.771,261.152 155.778,261.152    155.778,257.184 160.851,257.184 161.609,255.203 155.778,255.203 155.778,251.465 161.771,251.465 161.771,249.482    153.211,249.482  "
       id="polygon331" /><path
       clip-path="url(#SVGID_2_)"
       fill="#807F83"
       d="M129.052,279.812c0-10.046-9.806-8.742-19.616-8.689h-1.907v27.526h4.581   v-23.356c9.605-0.62,12.394,0.773,12.394,4.52c0,3.457-2.951,4.728-8.197,4.728h-0.893l-1.361,4.021l9.754,10.202h5.82   l-9.981-10.386C127.283,287.526,129.052,284.382,129.052,279.812"
       id="path333" /><path
       clip-path="url(#SVGID_2_)"
       fill="#807F83"
       d="M66.304,288.562c10.236,0.838,13.566-3.857,13.566-8.749   c0-10.047-9.805-8.742-19.617-8.689h-1.906v27.526h4.582v-23.356c9.604-0.619,12.392,0.774,12.392,4.52   c0,3.457-2.852,5.025-8.196,4.729h-0.891l-1.279,3.831L66.304,288.562z"
       id="path335" /><rect
       x="133.914"
       y="270.863"
       clip-path="url(#SVGID_2_)"
       fill="#807F83"
       width="5.133"
       height="27.899"
       id="rect337" /><path
       clip-path="url(#SVGID_2_)"
       fill="#807F83"
       d="M101.664,298.764h5.055l-12.833-27.876h-5.511l-11.369,27.921l4.999-0.045   l3.695-9.341H97.52L101.664,298.764z M87.247,285.52l4.021-10.164l4.513,10.164H87.247z"
       id="path339" /><path
       clip-path="url(#SVGID_2_)"
       fill="#807F83"
       d="M154.539,298.649h-10.271v-4.313h9.626c3.489,0,3.974-1.436,3.974-2.985   c0-2.164-2.545-3.368-5.491-4.762c-3.715-1.754-7.919-3.745-7.919-8.381c0-4.369,3.059-7.188,7.797-7.188h9.488v4.319h-9.982   c-1.777,0-2.761,0.949-2.761,2.679c0,1.84,2.404,2.972,5.185,4.283c3.665,1.722,8.23,3.873,8.23,8.745   C162.414,295.737,159.396,298.649,154.539,298.649"
       id="path341" /><path
       clip-path="url(#SVGID_2_)"
       fill="#807F83"
       d="M68.805,332.313H58.53v-4.318h9.623c3.495,0,3.976-1.437,3.976-2.987   c0-2.163-2.545-3.362-5.491-4.76c-3.711-1.755-7.918-3.745-7.918-8.381c0-4.364,3.059-7.188,7.796-7.188h9.491v4.318h-9.989   c-1.776,0-2.758,0.951-2.758,2.68c0,1.844,2.406,2.974,5.186,4.279c3.664,1.729,8.227,3.881,8.227,8.748   C76.673,329.396,73.66,332.313,68.805,332.313"
       id="path343" /><path
       clip-path="url(#SVGID_2_)"
       fill="#807F83"
       d="M101.174,304.67h-5.383v17.939c0,3.72-2.058,5.754-5.916,5.754   c-3.856,0-5.873-2.034-5.873-5.754V304.67h-4.646v18.329c0,5.33,3.906,9.483,10.663,9.483c6.611,0,10.666-4.153,10.666-9.483   v-14.16"
       id="path345" /><path
       clip-path="url(#SVGID_2_)"
       fill="#807F83"
       d="M101.079,331.365c0,0,1.04,0.779,5.78,0.759   c9.876-0.046,14.098-5.825,14.098-13.992c0-7.993-5.846-13.461-12.174-13.461H95.792l2.393,4.302h8.757   c6.967,0,9.139,5.58,9.139,9.324c0,4.083-1.968,9.753-8.812,9.753c-1.684,0-4.288-0.457-4.288-0.457L101.079,331.365z"
       id="path347" /></g></svg>